<svg width="184" height="55" viewBox="0 0 184 55" fill="none" xmlns="http://www.w3.org/2000/svg"><path d="M177.185 0H6.815C3.05 0 0 3.078 0 6.875v41.25C0 51.922 3.051 55 6.815 55h170.37c3.764 0 6.815-3.078 6.815-6.875V6.875C184 3.078 180.949 0 177.185 0Z" fill="#1A1A1A"/><path d="M177.185 1.1a5.705 5.705 0 0 1 4.046 1.693 5.81 5.81 0 0 1 1.679 4.082v41.25a5.81 5.81 0 0 1-1.679 4.081 5.705 5.705 0 0 1-4.046 1.694H6.815a5.706 5.706 0 0 1-4.046-1.694 5.808 5.808 0 0 1-1.679-4.081V6.875c.002-1.531.606-3 1.679-4.082A5.706 5.706 0 0 1 6.815 1.1h170.37Zm0-1.1H6.815a6.805 6.805 0 0 0-4.813 2.02A6.926 6.926 0 0 0 0 6.875v41.25a6.926 6.926 0 0 0 2.002 4.855A6.804 6.804 0 0 0 6.815 55h170.37a6.804 6.804 0 0 0 4.813-2.02A6.924 6.924 0 0 0 184 48.125V6.875a6.924 6.924 0 0 0-2.002-4.855A6.805 6.805 0 0 0 177.185 0Z" fill="#1A1A1A"/><path d="M64.632 14.085a3.753 3.753 0 0 1-1.016 2.754 3.934 3.934 0 0 1-3.004 1.22 4.179 4.179 0 0 1-3.023-1.252 4.252 4.252 0 0 1-1.225-3.057 4.284 4.284 0 0 1 1.225-3.057 4.18 4.18 0 0 1 3.023-1.253 4.187 4.187 0 0 1 1.679.346c.492.202.93.518 1.279.922l-.719.726a2.74 2.74 0 0 0-2.239-.979 3.135 3.135 0 0 0-2.283.966 3.194 3.194 0 0 0-.892 2.33c-.01.642.169 1.273.514 1.812.346.54.843.963 1.428 1.218a3.189 3.189 0 0 0 3.517-.657c.42-.456.663-1.049.686-1.67h-2.97v-.992h3.963c.037.206.056.414.057.623ZM70.911 10.64h-3.724v2.615h3.358v.991h-3.358v2.616h3.724v1.013h-4.774v-8.25h4.774v1.014ZM75.343 17.875h-1.051V10.64h-2.284V9.625h5.62v1.014h-2.285v7.236ZM81.692 17.875v-8.25h1.05v8.25h-1.05ZM87.406 17.875h-1.052V10.64H84.07V9.625h5.62v1.014h-2.284v7.236ZM100.326 16.809a4.226 4.226 0 0 1-2.998 1.25 4.227 4.227 0 0 1-2.998-1.25 4.251 4.251 0 0 1-1.205-3.059 4.252 4.252 0 0 1 1.205-3.059 4.2 4.2 0 0 1 6.903 1.408c.208.525.309 1.086.298 1.651a4.262 4.262 0 0 1-.295 1.653 4.222 4.222 0 0 1-.91 1.406Zm-5.22-.69a3.13 3.13 0 0 0 2.222.926 3.13 3.13 0 0 0 2.221-.927 3.23 3.23 0 0 0 .909-2.368 3.259 3.259 0 0 0-.909-2.368 3.13 3.13 0 0 0-2.221-.927 3.13 3.13 0 0 0-2.222.927 3.235 3.235 0 0 0-.908 2.368 3.257 3.257 0 0 0 .908 2.368ZM103.004 17.875v-8.25h1.279l3.974 6.418h.046l-.046-1.59V9.625h1.052v8.25h-1.097l-4.158-6.728h-.045l.045 1.59v5.138h-1.05ZM92.867 29.908a5.761 5.761 0 0 0-3.215.997 5.838 5.838 0 0 0-2.125 2.629 5.896 5.896 0 0 0-.321 3.377 5.864 5.864 0 0 0 1.591 2.989 5.78 5.78 0 0 0 2.969 1.594 5.75 5.75 0 0 0 3.346-.337 5.808 5.808 0 0 0 2.598-2.154 5.885 5.885 0 0 0 .976-3.247 5.809 5.809 0 0 0-.42-2.256 5.77 5.77 0 0 0-1.261-1.912 5.709 5.709 0 0 0-1.9-1.264 5.668 5.668 0 0 0-2.238-.416Zm0 9.393a3.496 3.496 0 0 1-2.022-.473 3.542 3.542 0 0 1-1.406-1.539 3.582 3.582 0 0 1 .6-3.954 3.515 3.515 0 0 1 1.798-1.044 3.492 3.492 0 0 1 2.069.159 3.528 3.528 0 0 1 1.621 1.306c.398.59.611 1.287.611 2a3.41 3.41 0 0 1-.895 2.468 3.353 3.353 0 0 1-2.376 1.077Zm-12.694-9.393a5.761 5.761 0 0 0-3.215.997 5.838 5.838 0 0 0-2.125 2.629 5.896 5.896 0 0 0-.321 3.377 5.863 5.863 0 0 0 1.591 2.989 5.781 5.781 0 0 0 2.969 1.594 5.75 5.75 0 0 0 3.346-.337 5.808 5.808 0 0 0 2.598-2.154 5.885 5.885 0 0 0 .975-3.247 5.808 5.808 0 0 0-.42-2.256 5.768 5.768 0 0 0-1.26-1.912 5.71 5.71 0 0 0-1.9-1.264 5.67 5.67 0 0 0-2.238-.416Zm0 9.393a3.496 3.496 0 0 1-2.021-.473 3.542 3.542 0 0 1-1.407-1.539 3.582 3.582 0 0 1 .6-3.954 3.515 3.515 0 0 1 1.798-1.044 3.492 3.492 0 0 1 2.069.159 3.528 3.528 0 0 1 1.621 1.306c.398.59.611 1.287.611 2a3.409 3.409 0 0 1-.895 2.468 3.353 3.353 0 0 1-2.376 1.077Zm-15.1-7.598v2.48h5.885a5.2 5.2 0 0 1-1.34 3.124 6.02 6.02 0 0 1-2.082 1.394 5.977 5.977 0 0 1-2.463.422 6.517 6.517 0 0 1-4.57-1.964 6.632 6.632 0 0 1-1.886-4.637c0-1.735.678-3.4 1.886-4.636a6.517 6.517 0 0 1 4.57-1.965 6.242 6.242 0 0 1 4.435 1.772l1.735-1.75a8.573 8.573 0 0 0-2.835-1.88 8.514 8.514 0 0 0-3.335-.623 8.936 8.936 0 0 0-3.486.653 8.998 8.998 0 0 0-2.965 1.96 9.087 9.087 0 0 0-1.986 2.963 9.15 9.15 0 0 0 1.986 9.976 8.996 8.996 0 0 0 2.965 1.96 8.934 8.934 0 0 0 3.486.653 8.166 8.166 0 0 0 3.411-.593 8.229 8.229 0 0 0 2.869-1.955 8.24 8.24 0 0 0 2.13-5.804 8.141 8.141 0 0 0-.132-1.55h-8.278Zm61.753 1.927a5.43 5.43 0 0 0-1.899-2.65 5.357 5.357 0 0 0-3.063-1.072 5.469 5.469 0 0 0-2.164.462 5.51 5.51 0 0 0-1.81 1.283 5.598 5.598 0 0 0-1.494 4.104 5.793 5.793 0 0 0 .403 2.247 5.733 5.733 0 0 0 1.242 1.91 5.67 5.67 0 0 0 1.884 1.267c.705.29 1.462.435 2.224.424a5.727 5.727 0 0 0 2.74-.681 5.79 5.79 0 0 0 2.091-1.911l-1.976-1.33a3.327 3.327 0 0 1-1.215 1.19 3.293 3.293 0 0 1-1.64.428 2.928 2.928 0 0 1-1.675-.45 2.964 2.964 0 0 1-1.135-1.322l7.751-3.235-.264-.664Zm-7.904 1.95a3.206 3.206 0 0 1 .168-1.256 3.193 3.193 0 0 1 1.643-1.85 3.155 3.155 0 0 1 1.219-.306 2.23 2.23 0 0 1 1.261.293c.382.221.692.55.891.947l-5.182 2.171Zm-6.303 5.67h2.548V24.06h-2.548v17.19Zm-4.172-10.035h-.087a4.02 4.02 0 0 0-1.387-.986 3.985 3.985 0 0 0-1.666-.32 5.78 5.78 0 0 0-3.942 1.797 5.882 5.882 0 0 0-1.613 4.05c0 1.51.578 2.96 1.613 4.05a5.78 5.78 0 0 0 3.942 1.799 3.925 3.925 0 0 0 3.053-1.33h.087v.842c0 2.238-1.185 3.434-3.096 3.434a3.19 3.19 0 0 1-1.774-.593c-.52-.37-.919-.89-1.146-1.49l-2.218.93a5.566 5.566 0 0 0 2.046 2.52 5.489 5.489 0 0 0 3.092.937c2.987 0 5.512-1.773 5.512-6.092v-10.5h-2.416v.952Zm-2.92 8.086a3.514 3.514 0 0 1-2.298-1.138 3.574 3.574 0 0 1 0-4.813 3.514 3.514 0 0 1 2.298-1.138 3.245 3.245 0 0 1 2.298 1.12 3.302 3.302 0 0 1 .798 2.447 3.289 3.289 0 0 1-.806 2.425 3.235 3.235 0 0 1-2.29 1.097Zm33.231-15.24h-6.094V41.25h2.542v-6.513h3.552a5.255 5.255 0 0 0 2.115-.319 5.294 5.294 0 0 0 1.818-1.136 5.353 5.353 0 0 0 1.656-3.883 5.354 5.354 0 0 0-1.656-3.883 5.294 5.294 0 0 0-1.818-1.136 5.255 5.255 0 0 0-2.115-.32Zm.065 8.284h-3.617v-5.892h3.617a2.901 2.901 0 0 1 2.105.841 2.965 2.965 0 0 1 0 4.21 2.903 2.903 0 0 1-2.105.841Zm15.718-2.468a4.744 4.744 0 0 0-2.659.633 4.797 4.797 0 0 0-1.879 1.998l2.258.951c.224-.415.563-.755.975-.98a2.393 2.393 0 0 1 1.348-.28 2.437 2.437 0 0 1 1.791.548c.501.414.819 1.013.884 1.663v.177a5.588 5.588 0 0 0-2.653-.663c-2.433 0-4.91 1.349-4.91 3.87.024.531.153 1.052.38 1.532a3.96 3.96 0 0 0 2.297 2.053c.5.17 1.028.236 1.554.196a3.558 3.558 0 0 0 1.849-.393 3.595 3.595 0 0 0 1.395-1.287h.088v1.326h2.455v-6.59c0-3.051-2.258-4.754-5.173-4.754Zm-.307 9.42c-.833 0-1.995-.42-1.995-1.46 0-1.326 1.447-1.835 2.696-1.835a4.501 4.501 0 0 1 2.324.575 3.123 3.123 0 0 1-1.008 1.932c-.556.5-1.272.78-2.017.788Zm14.424-9.044-2.916 7.452h-.088l-3.025-7.452h-2.74l4.538 10.416-2.587 5.794h2.653l6.992-16.21h-2.827ZM145.75 41.25h2.543V24.06h-2.543v17.19Z" fill="#fff"/><path d="M14.226 10.365a2.769 2.769 0 0 0-.631 1.932v30.41a2.767 2.767 0 0 0 .63 1.93l.101.1 16.886-17.035V27.3L14.326 10.265l-.1.1Z" fill="url(#a)"/><path d="m36.835 33.382-5.628-5.68V27.3l5.63-5.68.127.074 6.668 3.822c1.905 1.092 1.905 2.878 0 3.97l-6.668 3.823-.129.073Z" fill="url(#b)"/><path d="M36.965 33.31 31.21 27.5 14.222 44.639a2.206 2.206 0 0 0 2.833.084l19.91-11.413Z" fill="url(#c)"/><path d="M36.965 21.694 17.055 10.28a2.204 2.204 0 0 0-2.833.084L31.21 27.5l5.756-5.808Z" fill="url(#d)"/><path opacity=".2" d="m36.838 33.181-19.784 11.34a2.257 2.257 0 0 1-2.73.015l-.102.102.101.1v-.001a2.255 2.255 0 0 0 2.732-.015l19.91-11.413-.127-.128Z" fill="#1A1A1A"/><path opacity=".12" d="M14.226 44.437a2.77 2.77 0 0 1-.631-1.932v.201a2.77 2.77 0 0 0 .63 1.932l.102-.102-.101-.099ZM43.632 29.286l-6.796 3.895.127.128 6.669-3.822c.392-.172.731-.447.983-.796.25-.349.405-.76.445-1.189a2.569 2.569 0 0 1-.505 1.062 2.54 2.54 0 0 1-.923.722Z" fill="#1A1A1A"/><path opacity=".25" d="m17.057 10.482 26.58 15.235c.359.164.675.411.923.721s.421.674.505 1.063c-.04-.43-.194-.84-.445-1.19a2.394 2.394 0 0 0-.984-.795L17.056 10.28c-1.904-1.092-3.462-.185-3.462 2.016v.2c0-2.2 1.558-3.107 3.463-2.015Z" fill="#fff"/><defs><linearGradient id="a" x1="29.715" y1="11.976" x2="6.64" y2="34.849" gradientUnits="userSpaceOnUse"><stop stop-color="#00A0FF"/><stop offset=".007" stop-color="#00A1FF"/><stop offset=".26" stop-color="#00BEFF"/><stop offset=".512" stop-color="#00D2FF"/><stop offset=".76" stop-color="#00DFFF"/><stop offset="1" stop-color="#00E3FF"/></linearGradient><linearGradient id="b" x1="46.112" y1="27.502" x2="13.133" y2="27.502" gradientUnits="userSpaceOnUse"><stop stop-color="#FFE000"/><stop offset=".409" stop-color="#FFBD00"/><stop offset=".775" stop-color="orange"/><stop offset="1" stop-color="#FF9C00"/></linearGradient><linearGradient id="c" x1="33.837" y1="30.657" x2="2.546" y2="61.675" gradientUnits="userSpaceOnUse"><stop stop-color="#FF3A44"/><stop offset="1" stop-color="#C31162"/></linearGradient><linearGradient id="d" x1="9.945" y1=".242" x2="23.918" y2="14.093" gradientUnits="userSpaceOnUse"><stop stop-color="#32A071"/><stop offset=".069" stop-color="#2DA771"/><stop offset=".476" stop-color="#15CF74"/><stop offset=".801" stop-color="#06E775"/><stop offset="1" stop-color="#00F076"/></linearGradient></defs></svg>